<?xml version="1.0" encoding="UTF-8" standalone="no"?>
<!--
  ~ Copyright (C) 2012-2018 The Android Money Manager Ex Project Team
  ~
  ~ This program is free software; you can redistribute it and/or
  ~ modify it under the terms of the GNU General Public License
  ~ as published by the Free Software Foundation; either version 3
  ~ of the License, or (at your option) any later version.
  ~
  ~ This program is distributed in the hope that it will be useful,
  ~ but WITHOUT ANY WARRANTY; without even the implied warranty of
  ~ MERCHANTABILITY or FITNESS FOR A PARTICULAR PURPOSE.  See the
  ~ GNU General Public License for more details.
  ~
  ~ You should have received a copy of the GNU General Public License
  ~ along with this program.  If not, see <http://www.gnu.org/licenses/>.
  -->

<!-- Created with Inkscape (http://www.inkscape.org/) -->
<svg id="svg2" xmlns:rdf="http://www.w3.org/1999/02/22-rdf-syntax-ns#" xmlns="http://www.w3.org/2000/svg" height="400" viewBox="0 0 400 400" width="400" version="1.1" xmlns:cc="http://creativecommons.org/ns#" xmlns:dc="http://purl.org/dc/elements/1.1/">
 <title id="title3336">Accounts</title>
 <g id="layer1" fill="#fff" transform="translate(0 -652.36)">
  <g id="g3411" transform="matrix(2.0502 0 0 2.0502 235.36 715.67)">
   <g id="g3339" fill="#fff">
    <g id="g3341" fill="#fff">
     <path id="path3343" d="m57.063 21.217v5.511l0.266 0.65-0.266 0.108v9.717l3.665-1.495 0.804 1.967c0.354 0.87-0.045 1.859-0.89 2.205l-44.237 18.057c-0.837 0.342-1.831-0.104-2.178-0.952l-0.803-1.968 33.854-13.819h-23.803l-13.45 5.49-2.241-5.491h-2.25l6.766 16.574c0.587 1.438 1.959 2.367 3.497 2.367 0.48 0 0.951-0.092 1.397-0.274l44.236-18.057c1.908-0.78 2.819-2.986 2.03-4.92l-6.397-15.67z"/>
     <polygon id="polygon3345" points="44.089 26.439 44.866 26.439 44.866 25.1"/>
     <polygon id="polygon3347" points="18.011 26.439 18.011 25.1 17.236 26.439"/>
     <path id="path3349" d="m23.098 27.017c0.078-0.102 0.116-0.234 0.116-0.398 0-0.181-0.044-0.32-0.133-0.417s-0.197-0.145-0.326-0.145c-0.104 0-0.197 0.032-0.276 0.095-0.12 0.093-0.18 0.243-0.18 0.45 0 0.167 0.045 0.304 0.135 0.409 0.09 0.106 0.205 0.159 0.343 0.159 0.136 0 0.243-0.052 0.321-0.153z"/>
     <path id="path3351" d="m8.95 34.536c0.116 0 0.225-0.033 0.324-0.102 0.099-0.066 0.15-0.189 0.153-0.37v-0.199c-0.035 0.021-0.069 0.039-0.104 0.052-0.034 0.013-0.083 0.024-0.144 0.036l-0.122 0.023c-0.115 0.019-0.197 0.044-0.248 0.073-0.084 0.049-0.127 0.125-0.127 0.228 0 0.092 0.026 0.156 0.077 0.197 0.053 0.042 0.117 0.062 0.191 0.062z"/>
     <path id="path3353" d="m30.07 27.166c0.139 0 0.25-0.042 0.329-0.126s0.119-0.204 0.119-0.356c0-0.158-0.041-0.279-0.121-0.361-0.082-0.083-0.19-0.123-0.327-0.123s-0.246 0.041-0.327 0.123-0.121 0.202-0.121 0.361c0 0.153 0.04 0.272 0.119 0.356s0.19 0.126 0.329 0.126z"/>
     <path id="path3355" d="m14.708 33.199c-0.138 0-0.244 0.038-0.32 0.116s-0.123 0.185-0.142 0.318h0.922c-0.009-0.144-0.057-0.251-0.142-0.325-0.086-0.073-0.192-0.109-0.318-0.109z"/>
     <path id="path3357" d="m32.507 24.962c-0.104 0-0.193 0.029-0.268 0.087-0.117 0.091-0.176 0.247-0.176 0.466 0 0.184 0.038 0.322 0.113 0.415 0.075 0.092 0.19 0.138 0.345 0.138 0.086 0 0.164-0.024 0.238-0.073 0.139-0.088 0.208-0.243 0.208-0.46 0-0.176-0.04-0.315-0.122-0.418-0.083-0.104-0.195-0.155-0.338-0.155z"/>
     <path id="path3359" d="m30.069 25.731c0.125 0 0.221-0.036 0.289-0.108 0.067-0.072 0.102-0.163 0.102-0.277 0-0.123-0.035-0.219-0.102-0.289-0.068-0.07-0.165-0.104-0.289-0.104-0.123 0-0.22 0.034-0.289 0.104-0.07 0.07-0.104 0.166-0.104 0.289 0 0.112 0.034 0.205 0.104 0.277 0.069 0.073 0.166 0.108 0.289 0.108z"/>
     <path id="path3361" d="m21.257 33.977c-0.114 0.019-0.197 0.044-0.246 0.073-0.084 0.049-0.127 0.125-0.127 0.228 0 0.092 0.026 0.156 0.077 0.197s0.115 0.062 0.188 0.062c0.117 0 0.225-0.033 0.324-0.102 0.099-0.067 0.15-0.189 0.153-0.37v-0.199c-0.034 0.021-0.068 0.039-0.104 0.052-0.034 0.013-0.083 0.024-0.144 0.036l-0.121 0.023z"/>
     <path id="path3363" d="m30.247 33.977c-0.115 0.018-0.197 0.044-0.247 0.073-0.084 0.049-0.127 0.125-0.127 0.228 0 0.092 0.026 0.156 0.077 0.197s0.115 0.062 0.189 0.062c0.116 0 0.225-0.033 0.324-0.102 0.099-0.067 0.15-0.189 0.153-0.37v-0.199c-0.034 0.021-0.069 0.039-0.104 0.052-0.034 0.013-0.083 0.024-0.144 0.036l-0.121 0.023z"/>
     <path id="path3365" d="m35.578 33.315c-0.077 0.078-0.123 0.185-0.143 0.318h0.923c-0.01-0.144-0.059-0.251-0.144-0.325-0.086-0.073-0.191-0.109-0.317-0.109-0.138 0-0.244 0.038-0.319 0.116z"/>
     <path id="path3367" d="m49.631 27.17c0.136 0 0.242-0.052 0.32-0.153 0.079-0.102 0.117-0.234 0.117-0.398 0-0.181-0.045-0.32-0.134-0.417-0.088-0.097-0.196-0.145-0.326-0.145-0.104 0-0.197 0.032-0.275 0.095-0.12 0.093-0.18 0.243-0.18 0.45 0 0.167 0.044 0.304 0.135 0.409 0.09 0.106 0.206 0.159 0.343 0.159z"/>
     <path id="path3369" d="m5.309 26.881c0.058 0.189 0.179 0.285 0.36 0.285s0.3-0.095 0.357-0.285c0.049-0.162 0.072-0.4 0.08-0.686 0.001-0.047 0.006-0.083 0.006-0.133 0-0.374-0.028-0.652-0.084-0.832s-0.175-0.27-0.357-0.27-0.301 0.089-0.36 0.27c-0.06 0.18-0.088 0.458-0.088 0.832 0 0.184 0.008 0.345 0.024 0.484 0.011 0.131 0.032 0.244 0.062 0.335z"/>
     <path id="path3371" d="m2.176 38.916c0.484 0.229 1.02 0.368 1.589 0.368h48.228c1.016 0 1.935-0.413 2.614-1.078 0.706-0.694 1.151-1.661 1.151-2.735v-28.05c0-1.074-0.445-2.042-1.151-2.735-0.68-0.665-1.599-1.079-2.614-1.079h-48.227c-2.077 0-3.766 1.712-3.766 3.814v28.05c0 1.524 0.895 2.835 2.176 3.445zm2.42-12.854c0-0.513 0.08-0.91 0.239-1.188 0.159-0.279 0.436-0.418 0.833-0.418 0.396 0 0.674 0.14 0.833 0.418 0.145 0.254 0.216 0.617 0.228 1.065 0.001 0.043 0.011 0.076 0.011 0.122 0 0.513-0.08 0.908-0.239 1.185s-0.437 0.416-0.833 0.416-0.674-0.138-0.833-0.416c-0.074-0.128-0.126-0.288-0.166-0.466-0.046-0.207-0.073-0.443-0.073-0.718zm29.142-12.452c0-2.834 2.308-5.141 5.142-5.141 1.117 0 2.146 0.369 2.99 0.977 0.877-0.701 1.974-1.138 3.181-1.138 1.035 0 1.996 0.313 2.803 0.845 0.667 0.438 1.209 1.033 1.61 1.724 0.438 0.755 0.708 1.62 0.708 2.554 0 2.824-2.298 5.122-5.121 5.122-1.107 0-2.125-0.361-2.963-0.96-0.883 0.712-1.988 1.158-3.208 1.158-1.66 0-3.121-0.803-4.061-2.026-0.426-0.551-0.739-1.183-0.912-1.878-0.101-0.398-0.169-0.808-0.169-1.237zm-0.968 19.766c-0.046-0.1-0.134-0.148-0.266-0.148-0.154 0-0.256 0.049-0.309 0.148-0.029 0.056-0.042 0.141-0.042 0.252v1.233h-0.544v-2.046h0.521v0.299c0.066-0.106 0.129-0.182 0.188-0.227 0.104-0.08 0.238-0.121 0.404-0.121 0.155 0 0.283 0.033 0.38 0.103 0.076 0.063 0.137 0.146 0.176 0.247 0.071-0.121 0.157-0.208 0.262-0.266 0.111-0.057 0.233-0.084 0.369-0.084 0.09 0 0.18 0.018 0.267 0.052 0.088 0.036 0.167 0.097 0.238 0.185 0.057 0.072 0.098 0.159 0.116 0.264 0.013 0.068 0.019 0.169 0.019 0.303l-0.004 1.292h-0.548v-1.306c0-0.077-0.014-0.141-0.039-0.191-0.047-0.094-0.134-0.143-0.262-0.143-0.149 0-0.251 0.062-0.308 0.185-0.028 0.064-0.043 0.144-0.043 0.234v1.221h-0.54v-1.221c0.002-0.121-0.01-0.21-0.035-0.265zm0.041-6.914c-0.114 0.068-0.255 0.103-0.422 0.103-0.247 0-0.466-0.085-0.658-0.256s-0.288-0.417-0.288-0.738c0-0.333 0.096-0.604 0.289-0.81 0.192-0.207 0.441-0.31 0.749-0.31 0.474 0 0.798 0.209 0.974 0.628 0.101 0.237 0.149 0.55 0.149 0.937 0 0.376-0.047 0.689-0.144 0.94-0.184 0.479-0.519 0.718-1.007 0.718-0.234 0-0.443-0.069-0.628-0.207-0.186-0.139-0.293-0.34-0.32-0.603h0.608c0.015 0.091 0.054 0.165 0.116 0.223s0.146 0.085 0.252 0.085c0.2 0 0.342-0.111 0.423-0.335 0.045-0.123 0.072-0.301 0.083-0.538-0.053 0.073-0.112 0.126-0.176 0.163zm-3.653-0.856c-0.044-0.117-0.067-0.226-0.067-0.327 0-0.227 0.085-0.419 0.255-0.579 0.17-0.159 0.411-0.238 0.722-0.238 0.31 0 0.551 0.079 0.722 0.238s0.255 0.352 0.255 0.579c0 0.101-0.023 0.21-0.068 0.327-0.044 0.116-0.143 0.217-0.293 0.303 0.153 0.085 0.269 0.199 0.347 0.34 0.077 0.142 0.117 0.299 0.117 0.474 0 0.262-0.097 0.485-0.291 0.668-0.193 0.183-0.464 0.275-0.812 0.275s-0.611-0.092-0.79-0.275-0.269-0.406-0.269-0.668c0-0.174 0.04-0.332 0.119-0.474 0.079-0.141 0.193-0.248 0.345-0.319-0.149-0.099-0.247-0.207-0.292-0.324zm1.372 7.635c-0.06-0.032-0.146-0.049-0.261-0.049-0.128 0-0.22 0.033-0.272 0.095-0.039 0.046-0.063 0.109-0.076 0.188h-0.518c0.012-0.179 0.062-0.326 0.151-0.441 0.142-0.18 0.386-0.271 0.732-0.271 0.225 0 0.425 0.045 0.601 0.133 0.175 0.09 0.262 0.258 0.262 0.505v0.94c0 0.064 0.001 0.144 0.004 0.237 0.004 0.069 0.015 0.117 0.032 0.143 0.018 0.024 0.044 0.046 0.08 0.063v0.078h-0.583c-0.017-0.042-0.027-0.08-0.033-0.117-0.006-0.036-0.012-0.077-0.015-0.124-0.075 0.081-0.16 0.149-0.257 0.205-0.115 0.067-0.247 0.101-0.394 0.101-0.187 0-0.341-0.054-0.462-0.158-0.122-0.106-0.183-0.256-0.183-0.45 0-0.252 0.098-0.434 0.294-0.547 0.107-0.062 0.266-0.104 0.474-0.131l0.183-0.022c0.1-0.014 0.171-0.028 0.215-0.047 0.077-0.032 0.115-0.083 0.115-0.152-0.001-0.089-0.031-0.148-0.089-0.179zm-2.144 0.125c-0.052-0.105-0.152-0.158-0.297-0.158-0.181 0-0.304 0.077-0.372 0.231-0.035 0.081-0.052 0.185-0.052 0.312v1.109h-0.537v-2.046h0.519v0.299c0.068-0.104 0.133-0.182 0.194-0.227 0.109-0.083 0.25-0.124 0.418-0.124 0.211 0 0.383 0.055 0.517 0.167 0.135 0.11 0.202 0.295 0.202 0.551v1.381h-0.549v-1.246c0-0.108-0.013-0.191-0.043-0.249zm-2.977 1.086c0.022 0.021 0.086 0.03 0.196 0.03h0.053c0.018-0.002 0.036-0.002 0.054-0.004v0.401l-0.254 0.009c-0.253 0.008-0.426-0.036-0.519-0.131-0.06-0.062-0.091-0.157-0.091-0.285v-1.262h-0.286v-0.38h0.286v-0.573h0.531v0.573h0.333v0.38h-0.333v1.084c-0.002 0.085 0.008 0.137 0.03 0.158zm0.105-8.259c-0.087 0.192-0.166 0.429-0.237 0.707-0.07 0.278-0.105 0.508-0.105 0.687h-0.634c0.019-0.558 0.202-1.136 0.549-1.739 0.225-0.373 0.413-0.633 0.564-0.78h-1.549l0.008-0.549h2.195v0.479c-0.092 0.089-0.219 0.25-0.382 0.481-0.163 0.229-0.3 0.467-0.409 0.714zm-8.733 0.724v-0.533l1.143-1.886h0.687v1.942h0.351v0.478h-0.352v0.669h-0.598v-0.669l-1.231-0.001zm1.398 5.172h0.579v2.273h1.385v0.499h-1.964v-2.772zm1.361-4.66c-0.189-0.159-0.296-0.384-0.317-0.675h0.608c0.024 0.133 0.071 0.235 0.139 0.307s0.167 0.108 0.298 0.108c0.151 0 0.267-0.054 0.346-0.16 0.08-0.105 0.119-0.24 0.119-0.401 0-0.158-0.038-0.293-0.111-0.402-0.074-0.109-0.19-0.164-0.347-0.164-0.074 0-0.139 0.009-0.193 0.028-0.096 0.034-0.168 0.098-0.217 0.19l-0.548-0.026 0.218-1.717h1.71v0.519h-1.27l-0.111 0.679c0.095-0.062 0.167-0.103 0.221-0.122 0.088-0.033 0.196-0.049 0.323-0.049 0.257 0 0.481 0.086 0.672 0.259s0.286 0.423 0.286 0.754c0 0.287-0.093 0.543-0.276 0.77-0.184 0.226-0.459 0.338-0.827 0.338-0.291 0.002-0.534-0.077-0.723-0.236zm2.001 5.812c-0.06-0.032-0.146-0.049-0.26-0.049-0.128 0-0.22 0.033-0.273 0.095-0.039 0.046-0.064 0.109-0.076 0.188h-0.517c0.012-0.179 0.062-0.326 0.151-0.441 0.142-0.18 0.387-0.271 0.732-0.271 0.225 0 0.425 0.045 0.601 0.133 0.175 0.09 0.263 0.258 0.263 0.505v0.94c0 0.064 0.001 0.144 0.004 0.237 0.004 0.069 0.015 0.117 0.032 0.143 0.018 0.024 0.044 0.046 0.08 0.063v0.078h-0.583c-0.016-0.042-0.027-0.08-0.034-0.117-0.006-0.036-0.011-0.077-0.014-0.124-0.074 0.081-0.161 0.149-0.257 0.205-0.116 0.067-0.247 0.101-0.394 0.101-0.187 0-0.341-0.054-0.463-0.158-0.122-0.106-0.182-0.256-0.182-0.45 0-0.252 0.098-0.434 0.294-0.547 0.107-0.062 0.266-0.104 0.474-0.131l0.184-0.022c0.1-0.014 0.171-0.028 0.214-0.047 0.075-0.037 0.114-0.088 0.114-0.155-0.002-0.086-0.031-0.145-0.09-0.176zm0.361-6.065c-0.145-0.256-0.217-0.585-0.217-0.991 0-0.237 0.01-0.43 0.03-0.579 0.036-0.265 0.105-0.485 0.208-0.661 0.088-0.15 0.205-0.271 0.348-0.362 0.143-0.092 0.315-0.138 0.515-0.138 0.289 0 0.519 0.074 0.691 0.222s0.268 0.345 0.29 0.591h-0.607c0-0.05-0.019-0.105-0.059-0.165-0.065-0.097-0.165-0.146-0.298-0.146-0.199 0-0.341 0.111-0.424 0.334-0.046 0.123-0.077 0.304-0.095 0.545 0.076-0.09 0.164-0.156 0.264-0.197 0.1-0.042 0.214-0.062 0.343-0.062 0.276 0 0.502 0.094 0.678 0.281 0.176 0.188 0.265 0.427 0.265 0.718s-0.086 0.546-0.259 0.768-0.442 0.333-0.807 0.333c-0.391 0-0.68-0.163-0.866-0.491zm1.858 7.015c-0.05-0.031-0.237-0.085-0.562-0.161-0.232-0.059-0.396-0.131-0.491-0.217s-0.143-0.209-0.143-0.368c0-0.19 0.074-0.353 0.223-0.489s0.359-0.205 0.628-0.205c0.256 0 0.465 0.051 0.626 0.154 0.162 0.103 0.254 0.277 0.278 0.528h-0.536c-0.007-0.067-0.027-0.123-0.058-0.163-0.06-0.072-0.16-0.108-0.301-0.108-0.117 0-0.2 0.019-0.25 0.054-0.05 0.037-0.075 0.08-0.075 0.129 0 0.062 0.027 0.106 0.079 0.133 0.053 0.029 0.239 0.078 0.559 0.148 0.214 0.051 0.374 0.126 0.48 0.229 0.105 0.103 0.159 0.23 0.159 0.385 0 0.203-0.077 0.368-0.228 0.497-0.151 0.128-0.386 0.192-0.702 0.192-0.323 0-0.562-0.067-0.715-0.204-0.154-0.136-0.231-0.309-0.231-0.52h0.544c0.012 0.095 0.036 0.162 0.074 0.202 0.066 0.073 0.19 0.108 0.371 0.108 0.106 0 0.19-0.016 0.252-0.047 0.062-0.03 0.094-0.078 0.094-0.141 0-0.057-0.024-0.104-0.075-0.136zm-9.314 0.229c0.083 0.051 0.18 0.077 0.296 0.077 0.122 0 0.221-0.031 0.298-0.094 0.042-0.033 0.078-0.081 0.11-0.143h0.547c-0.015 0.122-0.081 0.245-0.2 0.371-0.183 0.199-0.44 0.299-0.771 0.299-0.273 0-0.514-0.084-0.722-0.252s-0.313-0.441-0.313-0.82c0-0.355 0.094-0.627 0.283-0.817 0.188-0.188 0.432-0.283 0.733-0.283 0.178 0 0.339 0.032 0.482 0.096 0.143 0.062 0.261 0.164 0.354 0.303 0.084 0.122 0.138 0.264 0.164 0.423 0.015 0.096 0.021 0.231 0.018 0.408h-1.493c0.007 0.203 0.08 0.348 0.214 0.432zm-0.495-9.109c0 0.184-0.054 0.338-0.163 0.464-0.068 0.079-0.14 0.132-0.214 0.161 0.056 0 0.135 0.047 0.239 0.144 0.156 0.145 0.233 0.341 0.233 0.592 0 0.262-0.091 0.494-0.273 0.694-0.182 0.199-0.452 0.298-0.808 0.298-0.439 0-0.745-0.144-0.917-0.431-0.09-0.153-0.14-0.354-0.15-0.6h0.6c0 0.124 0.02 0.227 0.059 0.308 0.074 0.15 0.209 0.225 0.405 0.225 0.119 0 0.224-0.041 0.313-0.123 0.089-0.083 0.133-0.2 0.133-0.355 0-0.205-0.083-0.341-0.248-0.409-0.094-0.039-0.243-0.059-0.445-0.059v-0.438c0.198-0.003 0.337-0.022 0.415-0.059 0.092-0.041 0.141-0.121 0.171-0.219 0.014-0.046 0.033-0.087 0.033-0.146 0-0.118-0.035-0.214-0.103-0.289-0.07-0.074-0.167-0.112-0.292-0.112-0.144 0-0.25 0.046-0.318 0.138-0.068 0.091-0.101 0.213-0.097 0.367h-0.57c0.005-0.154 0.033-0.301 0.08-0.439 0.05-0.122 0.128-0.233 0.235-0.337 0.08-0.073 0.175-0.128 0.284-0.167 0.11-0.039 0.245-0.058 0.405-0.058 0.297 0 0.537 0.077 0.719 0.23 0.166 0.14 0.245 0.328 0.261 0.554 0.003 0.025 0.013 0.042 0.013 0.066zm-1.181 8.053c-0.048-0.094-0.135-0.143-0.264-0.143-0.148 0-0.25 0.062-0.306 0.185-0.029 0.064-0.044 0.144-0.044 0.234v1.221h-0.539v-1.221c0-0.122-0.013-0.211-0.038-0.265-0.045-0.1-0.133-0.148-0.265-0.148-0.153 0-0.255 0.049-0.309 0.148-0.029 0.056-0.042 0.141-0.042 0.252v1.233h-0.544v-2.046h0.521v0.299c0.066-0.106 0.129-0.182 0.188-0.227 0.104-0.08 0.239-0.121 0.404-0.121 0.156 0 0.284 0.033 0.38 0.103 0.078 0.063 0.137 0.146 0.176 0.247 0.071-0.121 0.158-0.208 0.261-0.266 0.11-0.057 0.233-0.084 0.369-0.084 0.091 0 0.18 0.018 0.267 0.052 0.088 0.036 0.167 0.097 0.239 0.185 0.057 0.072 0.097 0.159 0.116 0.264 0.013 0.068 0.019 0.169 0.019 0.303l-0.004 1.292h-0.549v-1.306c0.003-0.076-0.011-0.14-0.036-0.191zm24.953-8.254c-0.072-0.087-0.178-0.131-0.312-0.131-0.186 0-0.312 0.07-0.379 0.208-0.038 0.081-0.062 0.208-0.069 0.381h-0.594c0.01-0.264 0.059-0.478 0.145-0.641 0.163-0.311 0.452-0.465 0.868-0.465 0.329 0 0.591 0.09 0.786 0.273 0.194 0.182 0.291 0.423 0.291 0.724 0 0.23-0.069 0.435-0.206 0.614-0.092 0.119-0.239 0.251-0.445 0.397l-0.244 0.174c-0.153 0.108-0.259 0.188-0.315 0.235-0.056 0.049-0.104 0.105-0.143 0.17h1.357v0.539h-2.128c0.004-0.223 0.053-0.427 0.142-0.611 0.088-0.208 0.293-0.427 0.619-0.659 0.28-0.201 0.464-0.346 0.547-0.434 0.126-0.135 0.19-0.284 0.19-0.445 0-0.133-0.038-0.242-0.11-0.329zm-1.345 7.744c0.143 0.062 0.263 0.164 0.354 0.303 0.085 0.122 0.139 0.264 0.165 0.423 0.014 0.096 0.021 0.231 0.016 0.408h-1.493c0.008 0.204 0.08 0.35 0.215 0.433 0.082 0.051 0.18 0.077 0.296 0.077 0.122 0 0.221-0.031 0.298-0.094 0.042-0.033 0.078-0.081 0.111-0.143h0.546c-0.015 0.122-0.08 0.245-0.198 0.371-0.184 0.199-0.441 0.299-0.771 0.299-0.272 0-0.514-0.084-0.722-0.252s-0.312-0.441-0.312-0.82c0-0.355 0.094-0.627 0.282-0.817 0.188-0.188 0.433-0.283 0.734-0.283 0.177-0.001 0.338 0.031 0.479 0.095zm-0.961-5.268h-0.627v-2.144h-0.73v-0.416c0.193-0.008 0.328-0.022 0.404-0.039 0.123-0.027 0.223-0.081 0.299-0.162 0.054-0.056 0.093-0.13 0.12-0.223 0.016-0.056 0.023-0.097 0.023-0.124h0.511v3.108zm7.041-1.308c-0.094-0.039-0.243-0.059-0.445-0.059v-0.438c0.197-0.003 0.337-0.022 0.415-0.059 0.136-0.061 0.204-0.181 0.204-0.365 0-0.118-0.035-0.214-0.104-0.289-0.069-0.074-0.167-0.112-0.291-0.112-0.145 0-0.25 0.046-0.318 0.138-0.067 0.091-0.101 0.213-0.097 0.367h-0.569c0.004-0.154 0.032-0.301 0.079-0.439 0.049-0.122 0.129-0.233 0.235-0.337 0.08-0.073 0.175-0.128 0.284-0.167 0.11-0.039 0.245-0.058 0.404-0.058 0.297 0 0.537 0.077 0.721 0.23 0.181 0.153 0.272 0.359 0.272 0.619 0 0.183-0.056 0.338-0.163 0.463-0.069 0.08-0.141 0.133-0.215 0.161 0.057 0 0.136 0.048 0.241 0.144 0.156 0.145 0.233 0.342 0.233 0.592 0 0.262-0.091 0.493-0.273 0.693-0.182 0.199-0.452 0.299-0.809 0.299-0.439 0-0.746-0.144-0.916-0.432-0.091-0.152-0.14-0.353-0.149-0.6h0.599c0 0.125 0.02 0.227 0.061 0.309 0.073 0.15 0.209 0.225 0.403 0.225 0.119 0 0.224-0.041 0.313-0.123 0.089-0.083 0.134-0.2 0.134-0.355-0.001-0.202-0.085-0.338-0.249-0.407zm3.358 0.161v0.478h-0.353v0.669h-0.598v-0.669h-1.229v-0.534l1.142-1.886h0.688v1.942h0.35zm1.661-0.233c-0.073-0.109-0.189-0.164-0.347-0.164-0.074 0-0.139 0.009-0.192 0.028-0.096 0.034-0.169 0.098-0.218 0.19l-0.547-0.026 0.218-1.717h1.711v0.519h-1.271l-0.111 0.679c0.095-0.062 0.167-0.103 0.22-0.122 0.09-0.033 0.196-0.049 0.323-0.049 0.258 0 0.481 0.086 0.672 0.259s0.286 0.423 0.286 0.754c0 0.287-0.092 0.543-0.275 0.77s-0.459 0.338-0.827 0.338c-0.296 0-0.539-0.079-0.728-0.237-0.189-0.159-0.297-0.383-0.318-0.675h0.608c0.024 0.133 0.071 0.235 0.14 0.307s0.169 0.108 0.299 0.108c0.152 0 0.267-0.054 0.347-0.16 0.078-0.106 0.118-0.241 0.118-0.402 0.004-0.156-0.035-0.291-0.108-0.4zm3.146-0.946h-0.608c0-0.05-0.02-0.105-0.059-0.165-0.065-0.097-0.165-0.146-0.298-0.146-0.199 0-0.342 0.111-0.425 0.334-0.045 0.123-0.077 0.304-0.094 0.545 0.075-0.09 0.163-0.156 0.263-0.197 0.1-0.042 0.216-0.063 0.344-0.063 0.274 0 0.501 0.094 0.678 0.282 0.176 0.188 0.265 0.427 0.265 0.717 0 0.291-0.087 0.546-0.26 0.768s-0.441 0.333-0.807 0.333c-0.391 0-0.68-0.164-0.865-0.491-0.146-0.256-0.217-0.585-0.217-0.991 0-0.237 0.011-0.43 0.03-0.579 0.035-0.265 0.105-0.484 0.208-0.661 0.089-0.15 0.205-0.271 0.349-0.362 0.143-0.092 0.315-0.138 0.516-0.138 0.288 0 0.519 0.074 0.69 0.222 0.171 0.149 0.267 0.346 0.29 0.592zm-40.096-0.798c0.33 0 0.591 0.09 0.786 0.273 0.195 0.182 0.292 0.423 0.292 0.724 0 0.23-0.068 0.435-0.206 0.614-0.089 0.117-0.235 0.247-0.437 0.39-0.003 0.002-0.005 0.004-0.008 0.006l-0.245 0.174c-0.153 0.108-0.258 0.188-0.315 0.235-0.056 0.049-0.104 0.105-0.143 0.17h1.357v0.539h-2.129c0.005-0.208 0.051-0.397 0.129-0.572 0.005-0.013 0.008-0.027 0.014-0.04 0.087-0.208 0.292-0.427 0.618-0.659 0.281-0.201 0.464-0.346 0.546-0.434 0.127-0.135 0.191-0.284 0.191-0.445 0-0.131-0.037-0.241-0.109-0.328s-0.177-0.131-0.312-0.131c-0.186 0-0.312 0.07-0.379 0.208-0.039 0.081-0.062 0.208-0.068 0.381h-0.595c0.01-0.264 0.058-0.478 0.144-0.641 0.071-0.135 0.177-0.228 0.296-0.304 0.056-0.035 0.123-0.054 0.188-0.077 0.117-0.039 0.233-0.083 0.385-0.083zm-4.448 10.399h-0.539v-2.772h0.607l1.1 1.933v-1.933h0.54v2.772h-0.579l-1.127-1.967v1.967h-0.002zm1.858-7.275v-2.144h-0.732v-0.416c0.193-0.008 0.327-0.022 0.404-0.039 0.123-0.027 0.223-0.081 0.299-0.162 0.053-0.056 0.092-0.13 0.119-0.223 0.016-0.056 0.024-0.097 0.024-0.124h0.511v3.109h-0.353l-0.272-0.001zm-2.009-9.713v-1.978h1.986v2.023h-1.981c0-0.016-0.005-0.03-0.005-0.045zm1.986 2.644c-0.792-0.237-1.44-0.807-1.762-1.558h1.762v1.558zm1.041-1.558h1.717v1.685h-1.717v-1.685zm2.758 0h1.763c-0.322 0.751-0.971 1.321-1.763 1.558v-1.558zm1.986-1.086c0 0.016-0.004 0.029-0.004 0.045h-1.98v-2.023h1.985l-0.001 1.978zm-2.506-3.02-0.521 0.001v3.063h-1.717v-5.045h1.973c1.251 0 2.299 0.839 2.642 1.98h-2.377zm-3.279 0h-1.857c0.268-0.891 0.965-1.586 1.857-1.853v1.853zm0.527 18.916c0.107-0.061 0.266-0.105 0.474-0.131l0.184-0.023c0.1-0.013 0.17-0.027 0.214-0.047 0.077-0.033 0.116-0.084 0.116-0.151 0-0.085-0.029-0.142-0.088-0.175-0.06-0.032-0.146-0.049-0.26-0.049-0.128 0-0.22 0.033-0.273 0.095-0.039 0.046-0.063 0.109-0.076 0.188h-0.517c0.011-0.179 0.062-0.326 0.151-0.441 0.142-0.18 0.387-0.271 0.732-0.271 0.225 0 0.425 0.045 0.601 0.133 0.175 0.09 0.263 0.258 0.263 0.505v0.94c0 0.064 0.001 0.144 0.004 0.237 0.004 0.069 0.014 0.118 0.032 0.143 0.018 0.024 0.043 0.046 0.079 0.063v0.078h-0.583c-0.017-0.042-0.027-0.08-0.033-0.117-0.006-0.036-0.011-0.077-0.015-0.124-0.074 0.081-0.161 0.149-0.257 0.205-0.116 0.067-0.247 0.101-0.394 0.101-0.187 0-0.341-0.054-0.463-0.158-0.122-0.106-0.182-0.256-0.182-0.45-0.002-0.256 0.096-0.439 0.291-0.551z"/>
     <path id="path3373" d="m35.824 16.314c0.75 0.849 1.836 1.395 3.056 1.395 0.873 0 1.679-0.279 2.345-0.748h1.722c0.013-0.01 0.021-0.024 0.035-0.034 0.278-0.223 0.533-0.473 0.751-0.756h-2.999c-0.121-0.195-0.232-0.399-0.329-0.611h3.721c0.134-0.251 0.244-0.515 0.329-0.791h-4.327c-0.017-0.063-0.043-0.124-0.057-0.188-0.039-0.162-0.055-0.329-0.075-0.495h4.616c0.028-0.204 0.062-0.408 0.062-0.62 0-0.058-0.015-0.112-0.019-0.171h-4.714c0.007-0.226 0.033-0.447 0.068-0.664h4.577c-0.053-0.274-0.133-0.538-0.232-0.791h-4.149c0.079-0.237 0.169-0.463 0.279-0.683h3.525c-0.073-0.119-0.17-0.219-0.25-0.331-0.114-0.156-0.216-0.322-0.351-0.461h-2.434c0.047-0.062 0.1-0.12 0.148-0.18-0.645-0.422-1.413-0.674-2.24-0.674-2.261 0-4.1 1.839-4.1 4.099 0 0.29 0.032 0.571 0.09 0.843 0.146 0.708 0.489 1.339 0.952 1.861z"/>
    </g>
   </g>
  </g>
  <g id="g3489" transform="matrix(.14861 0 0 .14861 117.31 738.55)">
   <g id="g3447" fill="#fff">
    <path id="path3449" d="m104.52 47.127 10.508 4.585c-7.289 4.463-10.578 8.827-9.746 12.983 0.856 4.294 4.781 7.996 11.677 11.007 6.352 2.773 13.836 4.274 22.883 4.59 8.921 0.309 22.683-2.2 40.919-7.464 4.53-1.311 8.081-2.074 10.547-2.264 2.414-0.19 4.36 0.081 6.128 0.855 1.217 0.531 4.927 2.147-4.396 6.219-6.056 2.643-12.327 3.731-18.635 3.235-4.991-0.389-10.045 0.531-12.915 2.356l-5.603 3.563c-2.449 1.556-2.945 3.546-1.33 5.296 1.612 1.75 5.131 3.028 9.364 3.408 13.836 1.242 27.493-0.351 40.614-4.712l14.184 6.193c5.041 2.2 13.207 2.2 18.246 0.005 5.037-2.201 5.037-5.767 0-7.966l-14.678-6.408c6.447-4.096 9.838-8.236 10.076-12.331 0.284-4.791-3.586-8.973-11.499-12.428-5.648-2.466-12.09-3.992-19.136-4.534-7.047-0.547-13.727-0.242-19.842 0.905-6.033 1.134-15.215 3.422-27.235 6.786-5.231 1.449-8.779 2.188-10.557 2.199-1.699 0.009-3.222-0.26-4.402-0.777-4.188-1.824-0.669-4.131 3.02-5.741 4.58-1.999 9.467-2.943 14.522-2.81 5.068 0.134 9.848-1.049 12.199-3.011l3.25-2.711c2.056-1.714 1.946-3.77-0.287-5.444-2.231-1.671-6.276-2.727-10.708-2.793-9.619-0.138-18.896 1.148-28.23 3.913l-10.694-4.667c-5.04-2.2-13.207-2.2-18.246 0-5.034 2.198-5.034 5.764 0.002 7.963z"/>
    <path id="path3451" d="m326.45 104.01c0.854-3.551 1.291-7.168 1.291-10.834v-11.588c0-23.154-17.287-44.325-48.677-59.612-29.1-14.171-67.57-21.976-108.32-21.976s-79.223 7.805-108.32 21.978c-31.395 15.287-48.682 36.458-48.682 59.612v11.588c0 22.833 16.82 43.733 47.387 58.968-0.848 3.534-1.395 7.938-1.395 10.782v2.114c-29.688 15.173-45.992 35.786-45.992 58.27v11.588c0 15.613 7.871 30.321 22.616 42.936-1.995 5.332-3.035 10.833-3.035 16.455v11.588c0 23.154 17.287 44.325 48.677 59.612 29.102 14.173 67.571 21.978 108.32 21.978 40.752 0 79.222-7.805 108.32-21.978 31.39-15.287 48.677-36.458 48.677-59.612v-11.588c0-15.61-7.864-30.316-22.603-42.929 1.993-5.333 3.021-10.839 3.021-16.462v-2.114c29.68-15.18 45.99-35.79 45.99-58.27v-11.588c0.001-22.806-16.781-43.684-47.282-58.915zm-290.77-32.226c4.547-11.561 16.932-22.786 35.493-31.825 26.428-12.871 61.788-19.959 99.568-19.959 37.778 0 73.139 7.088 99.566 19.959 18.562 9.039 30.946 20.265 35.493 31.825-16.07 27.942-71.88 48.316-135.06 48.316-63.19 0-119-20.373-135.06-48.316zm0 141.72c3.697-9.399 12.601-18.569 25.769-26.53 5.073 18.229 21.303 34.656 46.96 47.151 29.102 14.173 67.571 21.978 108.32 21.978 3.983 0 7.938-0.097 11.871-0.244-17.791 3.826-37.438 5.962-57.863 5.962-63.184-0.001-119-20.375-135.06-48.317zm289.7 70.978c-16.064 27.942-71.876 48.316-135.06 48.316-54.888 0-104.18-15.383-126.72-37.738 28.959 13.815 66.928 21.427 107.14 21.427 40.752 0 79.222-7.805 108.32-21.978 15.078-7.344 26.892-16.047 35.109-25.674 5.303 5.023 9.105 10.297 11.209 15.647zm-108.65-83.04c-55.166 0-104.71-15.532-127.09-38.071 24.167 7.414 52.041 11.4 81.096 11.4 40.752 0 79.222-7.805 108.32-21.977 17.622-8.582 30.798-19.019 38.967-30.619 17.591 8.885 29.359 19.757 33.762 30.951-16.063 27.941-71.876 48.316-135.06 48.316z"/>
   </g>
  </g>
  <g id="g3578" transform="matrix(5.2181 0 0 5.2181 40.724 872.87)">
   <g id="g3510" fill="#fff">
    <g id="g3512">
     <g id="g3514" fill="#fff">
      <path id="path3516" fill="#fff" d="m24.171 13.728v9.8h-18.8v-9.8h18.8m1.6-1.6h-22v13h22v-13z"/>
     </g>
    </g>
    <g id="g3518">
     <path id="path3520" d="m19.771 12.128 2.252 2.252c-0.017 0.083-0.05 0.16-0.05 0.248 0 0.717 0.581 1.297 1.298 1.297 0.088 0 0.164-0.033 0.247-0.049l2.253 2.252v-6h-6z"/>
     <circle id="circle3522" cy="18.628" cx="21.271" r="1.298"/>
     <ellipse id="ellipse3524" rx="3.926" ry="3.414" cy="18.628" cx="14.771"/>
     <circle id="circle3526" cy="18.628" cx="8.271" r="1.297"/>
     <path id="path3528" d="m3.771 18.128 2.252-2.252c0.083 0.017 0.16 0.05 0.248 0.05 0.717 0 1.297-0.581 1.297-1.298 0-0.088-0.033-0.164-0.05-0.247l2.253-2.253h-6v6z"/>
     <path id="path3530" d="m7.569 22.628c0-0.717-0.581-1.297-1.298-1.297-0.088 0-0.164 0.033-0.247 0.049l-2.253-2.252v6h6l-2.252-2.252c0.017-0.083 0.05-0.161 0.05-0.248z"/>
     <path id="path3532" d="m23.271 21.33c-0.717 0-1.297 0.581-1.297 1.298 0 0.088 0.033 0.164 0.05 0.247l-2.253 2.253h6v-6l-2.252 2.252c-0.083-0.017-0.16-0.05-0.248-0.05z"/>
    </g>
    <g id="g3534">
     <circle id="circle3536" cy="8.505" cx="18.473" r="1.297"/>
     <path id="path3538" d="m2.271 12.128c0-0.828 0.672-1.5 1.5-1.5h0.82l0.037-0.128 11.577-6.34 0.885 0.258c0.025 0.08 0.034 0.164 0.077 0.241 0.344 0.63 1.132 0.859 1.762 0.515 0.076-0.042 0.128-0.107 0.191-0.162l0.887 0.26 2.017 3.682-0.259 0.886c-0.079 0.024-0.163 0.033-0.24 0.075-0.293 0.16-0.488 0.422-0.591 0.713h3.831l-2.586-4.723h0.001l-2.883-5.262-5.264 2.882h0.001l-8.771 4.803-5.263 2.882 2.271 4.147v-3.229z"/>
     <path id="path3540" d="m11.131 8.634c-0.871 0.476-1.498 1.198-1.85 1.994h7.233c-0.058-0.305-0.145-0.604-0.299-0.885-0.907-1.654-3.182-2.15-5.084-1.109z"/>
    </g>
   </g>
  </g>
  <g id="g3746" transform="matrix(.32959 0 0 .32959 -7.593 655.06)">
   <g id="g3678" fill="#fff">
    <g id="g3680" fill="#fff">
     <g id="g3682">
      <path id="path3684" fill="#fff" d="m241.4 282.3c-1.587-1.738-3.595-3.038-5.67-4.121-4.518-2.356-9.459-3.785-14.365-5.075v38.016c7.963-0.9 17.105-3.79 21.286-11.224 1.996-3.551 2.393-7.914 1.58-11.867-0.441-2.142-1.352-4.108-2.831-5.729z"/>
     </g>
     <g id="g3686">
      <path id="path3688" fill="#fff" d="m242.6 299.97c0.016-0.027 0.025-0.044 0.042-0.073-0.014 0.024-0.028 0.048-0.042 0.073z"/>
     </g>
     <g id="g3690">
      <path id="path3692" fill="#fff" d="m184.01 221.53c-1.369 1.999-2.228 4.27-2.465 6.684-0.237 2.419-0.104 5.11 0.815 7.387 0.875 2.17 2.708 3.772 4.6 5.062 2.123 1.444 4.458 2.572 6.836 3.528 1.995 0.803 4.239 1.571 6.658 2.313v-34.4c-6.111 1.304-12.788 4.088-16.444 9.426z"/>
     </g>
     <g id="g3694">
      <path id="path3696" fill="#fff" d="m242.8 299.62c-0.05 0.089-0.104 0.182-0.157 0.28 0.062-0.114 0.111-0.198 0.157-0.28z"/>
     </g>
     <g id="g3698">
      <path id="path3700" fill="#fff" d="m243 299.26c0.013-0.024 0.015-0.026 0 0z"/>
     </g>
     <g id="g3702">
      <path id="path3704" fill="#fff" d="m234.75 92.469c32.33-27.158 53.93-88.341 40.64-91.017-17.66-3.557-56.02 12.04-74.56 14.788-26.3 3.175-54.94-28.515-71.01-10.851-13.08 14.362 9.37 66.592 44.48 89.346-104.75 51.485-251.99 309.94 4.87 328.7 355.41 25.94 177.45-280.8 55.58-330.97zm30.523 203.83c-1.093 10.076-6.433 19.188-14.415 25.374-8.428 6.532-18.999 9.57-29.502 10.421v11.133c0 2.979-1.301 5.86-3.531 7.832-3.065 2.712-7.569 3.381-11.289 1.667-3.673-1.69-6.086-5.457-6.086-9.499v-12.168c-1.801-0.342-3.589-0.749-5.356-1.234-9.816-2.697-18.921-7.954-25.572-15.732-3.313-3.877-6.014-8.276-7.882-13.025-0.488-1.241-0.923-2.505-1.304-3.783-0.345-1.157-0.701-2.333-0.824-3.539-0.207-2.023 0.194-4.087 1.137-5.889 1.938-3.707 6.022-5.946 10.192-5.574 4.104 0.364 7.701 3.212 8.993 7.124 0.398 1.205 0.668 2.44 1.115 3.632 0.443 1.184 0.978 2.335 1.607 3.431 1.242 2.158 2.798 4.148 4.59 5.875 3.694 3.559 8.399 5.872 13.304 7.248v-41.362c-9.591-2.483-19.491-5.69-27.411-11.848-3.849-2.994-7.115-6.714-9.254-11.117-2.257-4.647-3.192-9.824-3.23-14.966-0.039-5.221 0.953-10.396 3.131-15.153 2.04-4.454 4.977-8.453 8.578-11.768 7.7-7.087 17.928-11.04 28.187-12.492v-11.557c0-2.978 1.301-5.86 3.531-7.832 3.066-2.711 7.568-3.381 11.289-1.667 3.672 1.691 6.086 5.457 6.086 9.499v11.494c1.367 0.172 2.73 0.378 4.086 0.624 10.074 1.823 19.927 5.983 27.294 13.246 3.49 3.44 6.347 7.539 8.356 12.009 0.561 1.247 1.052 2.523 1.477 3.824 0.396 1.213 0.794 2.462 0.983 3.728 0.302 2.021-0.006 4.109-0.871 5.958-1.772 3.788-5.746 6.2-9.927 6.021-4.108-0.179-7.83-2.854-9.301-6.694-0.438-1.142-0.657-2.351-1.104-3.49-0.451-1.153-1.035-2.253-1.708-3.292-1.308-2.02-3.003-3.752-4.938-5.179-4.19-3.094-9.272-4.706-14.35-5.607v39.582c6.035 1.445 12.075 3.021 17.857 5.301 8.739 3.446 17.02 8.73 21.79 17.062-0.74-1.298-1.46-2.563 0.025 0.043 1.458 2.56 0.762 1.34 0.03 0.057 3.795 6.688 5.042 14.685 4.217 22.282z"/>
     </g>
     <g id="g3706">
      <path id="path3708" fill="#fff" d="m242.49 300.17c-0.061 0.109-0.114 0.205-0.156 0.278 0.036-0.063 0.09-0.158 0.156-0.278z"/>
     </g>
    </g>
   </g>
  </g>
  <g id="g3820" transform="matrix(.21199 0 0 .21199 258.13 927.15)">
   <g id="g3780" fill="#fff">
    <path id="path3782" fill="#fff" d="m559.77 484.62v-165.87h1.657c27.928 0 50.569-22.642 50.569-50.569 0-17.991-9.406-33.792-23.552-42.756l-252.27-188.79c-17.965-13.439-42.63-13.439-60.595 0l-255.3 191.06c-17.432 13.048-24.562 35.79-17.685 56.461 6.877 20.657 26.208 34.602 47.977 34.602h1.403v165.87c-26.422 1.657-47.409 23.401-47.409 50.254 0 27.928 22.642 50.569 50.569 50.569h501.48c27.928 0 50.569-22.642 50.569-50.569 0.001-26.852-20.973-48.585-47.41-50.253zm-372.24-0.316h-34.425v-165.55h34.425v165.55zm135.55 0h-34.413v-165.55h34.413v165.55zm-17.2-235.72c-34.374 0-62.238-27.864-62.238-62.226 0-34.374 27.865-62.226 62.238-62.226 34.375 0 62.239 27.852 62.239 62.226 0 34.361-27.864 62.226-62.239 62.226zm152.76 235.73h-34.425v-165.55h34.425v165.55z"/>
   </g>
  </g>
 </g>
</svg>
