<?xml version="1.0" encoding="UTF-8" standalone="no"?>
<!--
  ~ Copyright (C) 2012-2018 The Android Money Manager Ex Project Team
  ~
  ~ This program is free software; you can redistribute it and/or
  ~ modify it under the terms of the GNU General Public License
  ~ as published by the Free Software Foundation; either version 3
  ~ of the License, or (at your option) any later version.
  ~
  ~ This program is distributed in the hope that it will be useful,
  ~ but WITHOUT ANY WARRANTY; without even the implied warranty of
  ~ MERCHANTABILITY or FITNESS FOR A PARTICULAR PURPOSE.  See the
  ~ GNU General Public License for more details.
  ~
  ~ You should have received a copy of the GNU General Public License
  ~ along with this program.  If not, see <http://www.gnu.org/licenses/>.
  -->

<!-- Created with Inkscape (http://www.inkscape.org/) -->
<svg id="svg2" xmlns:rdf="http://www.w3.org/1999/02/22-rdf-syntax-ns#" xmlns="http://www.w3.org/2000/svg" height="400" viewBox="0 0 400 400.00001" width="400" version="1.1" xmlns:cc="http://creativecommons.org/ns#" xmlns:dc="http://purl.org/dc/elements/1.1/">
 <g id="layer1" fill="#fff" transform="translate(0 -652.36)">
  <g id="g3382" transform="matrix(4.2982 0 0 4.2982 105.74 756.5)">
   <g id="g3342" fill="#fff">
    <path id="path3344" d="m40.503 16.351 0.4 0.287h0.373v-0.718l1.176-0.114 1.117 0.832h1.836l0.129-0.118c-0.184-0.619-0.391-1.227-0.623-1.823l-1.198 0.02-0.601-0.66-0.116-1.061-0.616 0.336-0.33 1.297-0.889-0.946-0.036-0.894-0.858-0.739-0.316-0.315h-0.995l0.313 0.887 1.198 0.668 0.208 0.221-0.26 0.13 0.012 0.703-0.584 0.244-0.498-0.109-0.312-0.441 0.811 0.043 0.219-0.295-1.795-1.211-0.138-0.516-0.729 0.66-0.739-0.152-1.125 1.463-0.222 0.573-0.72 0.065-1.065 0.007-0.637-0.298-0.188-1.265 0.229-0.603 1.084-0.237 1.182 0.237 0.145-0.654-0.502-0.119 0.171-1.019 1.19-0.186 0.832-1.175 0.859-0.144 0.775 0.115h0.286l-0.158-1.104-0.942 0.38-0.332-0.825-0.547-0.076-0.103-0.565 0.446-0.486 1.061-0.416 0.273-0.488c-4.055-3.572-9.37-5.747-15.186-5.747-5.047 0-9.716 1.638-13.513 4.405l1.16-0.009 0.517 0.286 0.974 0.21 0.076 0.383 1.549 0.057-0.21-0.497-1.376-0.039 0.324-0.305-0.113-0.364h-1.244l1.357-1.013h1.3l0.611 0.842 1.014 0.057 0.611-0.593 0.459 0.229-0.842 0.822s-1.165 0.021-1.108 0.021 0.096 0.802 0.096 0.802l1.413-0.039 0.153-0.381 0.974-0.058 0.115-0.573-0.573-0.097 0.191-0.516 0.439-0.133 1.529 0.076-0.843 0.765 0.136 0.592 0.879 0.134-0.057-1.07 0.841-0.44 1.491-0.172 2.159 0.956v0.822l0.688 0.172-0.345 0.65h-0.975l-0.289 0.745-2.225-0.525 1.751-0.933-0.667-0.567-1.51 0.191-0.132 0.137-0.005-0.002-0.023 0.032-0.435 0.452-0.719 0.059 0.057 0.358 0.251 0.104-0.01 0.118-0.585 0.083-0.043 0.339-0.559 0.029-0.101-0.674-1.003 0.305-2.05 1.2 0.23 0.845 0.573 0.374 1.146 0.158v1.303l0.53-0.085 0.488-1.018 1.219-0.386v-1.563l0.678-0.512 1.639 0.387-0.115 1.033h0.44l1.205-0.592 0.058 1.356 0.877 0.535-0.037 0.804-0.84 0.286 0.057 0.266 1.013 0.461-0.021 0.554-0.293 0.025c-0.001-0.009-0.003-0.015-0.003-0.015l-1.278-0.394-0.054-0.41h-0.001l0.374-0.257v-0.374l-0.402-0.101-0.1 0.345-0.705 0.109-0.07-0.023v0.035l-0.244 0.037-0.199-0.402-0.23-0.101h-0.502l-0.228 0.188v0.416l0.429 0.143 0.424 0.06-0.095 0.042-0.387 0.429-0.17-0.214-0.374-0.099-1.019 0.958 0.133 0.109-1.504 0.833-1.415 1.472-0.097 0.655-1.418 0.932-0.703 0.707 0.078 1.414-0.975-0.454 0.007-0.827-2.713 0.001-1.405 0.711-0.61 1.125-0.242 0.892 0.395 0.865 1.107 0.135 1.759-1.176 0.154 0.583-0.537 1.014 1.339 0.229 0.134 2.068 1.835 0.312 1.166-1.348 1.415 0.288 0.497 0.691 1.357-0.08 0.038-0.401 0.746 0.362 0.841 1.318 1.452 0.02 0.536 0.938 0.076 1.146 1.606 0.611 2.026 0.021 0.593 0.973 0.898 0.288-0.172 0.805-0.984 1.25-0.287 2.769-0.889 0.702-1.318-0.039-0.439 0.764 0.326 1.436-1.435 1.834-0.458 0.842-1.367 0.656-0.899 0.137-0.037 0.381 0.631 0.181-0.076 0.411-0.565 0.544 0.343 0.433 0.68 0.019-0.038 0.524-0.181 0.517-0.058 0.42 1.006 0.847-0.134 0.44-1.369-0.026-1.362-1.188-1.061-1.865 0.148-1.8-0.803-1.071 0.325-1.815-0.477-0.133v-3.938s-1.338-1.014-1.415-1.014-0.708-0.172-0.708-0.172l-0.134-0.744-1.739-2.18 0.172-0.783 0.057-1.281 1.204-0.842-0.172-1.434-1.758-0.132-1.376-1.568-0.975-0.27-0.63-0.116 0.076-0.573-0.803-0.114v0.325l-2.008-0.501-0.808-1.236 0.329-0.599-1.271-1.855-0.218-1.357h-0.516l0.171 1.318 0.879 1.357-0.096 0.536-0.745-0.115-0.917-1.563v-1.819l-0.956-0.459v-1.309c-1.18 2.766-1.835 5.808-1.835 9.001 0 12.683 10.318 23.001 23.001 23.001 7.19 0 13.618-3.318 17.839-8.502h-0.759v-1.529l-0.878-1.182v-1.839l-0.67-0.668-0.059-0.765 0.852-1.625-1.613-2.849 0.189-1.933-1.452-0.15-0.535-0.535h-0.976l-0.496 0.458h-1.721l-0.058 0.153h-0.957l-2.196-2.503 0.018-1.95 0.363-0.133 0.135-0.746h-0.516l-0.211-0.783 2.541-1.834v-1.3l1.244-0.691 0.504 0.05h1.023l0.801-0.43 2.581-0.201v1.319l2.041 0.517zm-6.452-8.201 0.21-0.324 0.756-0.153 0.189 0.918 0.402 0.649 0.267 0.307 0.487 0.19-0.459 0.546-0.889 0.085h-0.668l0.075-0.793 0.556-0.115-0.047-0.373-0.518-0.325-0.362-0.248 0.001-0.364zm-1.241 1.434 0.459-0.736 0.619-0.144 0.44 0.191-0.04 0.497-0.946 0.669h-0.534v-0.477h0.002zm-12.497 2.829-0.479 0.04 0.026-0.333 0.214-0.267 0.288 0.226-0.049 0.334zm1.679-0.588-0.327 0.028-0.066 0.316-0.252 0.157-0.404 0.034c-0.014-0.095-0.022-0.167-0.022-0.167h-0.157v-0.34h0.659l0.136-0.351 0.262-0.005 0.299 0.062-0.128 0.266z" fill="#fff"/>
   </g>
  </g>
  <g id="g3702" transform="matrix(1.9034 0 0 1.9034 308.96 783)">
   <g id="g3660" fill="#fff">
    <g id="g3662" fill="#fff">
     <path id="path3664" d="m25.918 19.285c-4.77-1.796-6.733-2.975-6.733-4.826 0-1.57 1.179-3.143 4.826-3.143 2.37 0 4.237 0.444 5.67 0.938 0.63 0.217 1.319 0.16 1.903-0.155 0.586-0.315 1.011-0.861 1.176-1.507l0.427-1.69c0.313-1.217-0.377-2.467-1.573-2.856-1.576-0.513-3.467-0.9-6.061-1.012v-3.678c0-0.696-0.535-1.356-1.233-1.356h-2.975c-0.696 0-1.333 0.66-1.333 1.356v4.069c-5.895 1.179-9.448 5.05-9.448 9.988 0 5.443 4.122 8.249 10.125 10.269 4.153 1.404 5.954 2.752 5.954 4.883 0 2.244-2.187 3.48-5.384 3.48-2.513 0-4.864-0.561-6.854-1.33-0.635-0.244-1.345-0.209-1.951 0.104-0.605 0.312-1.049 0.867-1.218 1.527l-0.484 1.887c-0.301 1.174 0.315 2.386 1.448 2.816 2.09 0.797 4.864 1.381 7.576 1.504v4.07c0 0.696 0.591 1.238 1.289 1.238h2.974c0.697 0 1.278-0.542 1.278-1.238v-4.463c6.484-1.122 9.979-5.389 9.979-10.382 0.003-5.049-2.699-8.135-9.378-10.493z" fill="#fff"/>
    </g>
   </g>
  </g>
  <g id="g3763" transform="matrix(.17885 0 0 .17885 73.22 947.47)">
   <g id="g3723" fill="#fff">
    <path id="path3725" d="m407.4 299.2c0 9.906-8.027 17.927-17.934 17.927h-121.86v125.92c0 15.551-12.613 28.165-28.171 28.165-15.554 0-28.167-12.614-28.167-28.165v-125.92h-129.54c-9.897 0-17.921-8.021-17.921-17.927 0-9.901 8.023-17.928 17.921-17.928h129.54v-49.834l-1.017-1.383h-128.52c-9.897 0-17.921-8.027-17.921-17.928 0-9.903 8.023-17.921 17.921-17.921h101.94l-110.69-149.26c-9.265-12.496-6.656-30.134 5.843-39.411 12.492-9.256 30.142-6.646 39.413 5.852l120.52 162.52 113.83-161.14c8.967-12.706 26.562-15.738 39.253-6.756 12.714 8.976 15.74 26.561 6.762 39.266l-105.21 148.92h96.073c9.906 0 17.934 8.018 17.934 17.921 0 9.901-8.027 17.928-17.934 17.928h-121.4l-0.461 0.65v50.561h121.86c9.907 0.006 17.934 8.032 17.934 17.933z" fill="#fff"/>
   </g>
  </g>
  <g id="g3825" transform="matrix(.16652 0 0 .16652 151.92 659.56)">
   <g id="g3783" fill="#fff">
    <g id="g3785" fill="#fff">
     <path id="path3787" d="m437.7 439.55c-0.746-3.465-2.607-6.07-5.594-7.822-3.232-1.73-6.469-1.982-9.695-0.74l-1.859 0.74c-0.998 0.246-2.484 0.625-4.475 1.121-1.994 0.496-4.283 1.047-6.896 1.676-2.613 0.625-5.654 1.236-9.137 1.867-3.482 0.625-7.148 1.182-10.998 1.678-3.855 0.494-8.012 0.93-12.49 1.309-4.475 0.367-8.947 0.551-13.422 0.551-31.566 0-59.963-8.506-85.189-25.545-25.234-17.008-43.808-40.074-55.736-69.143h144.28c2.736 0 5.221-0.932 7.461-2.797 2.232-1.867 3.598-4.168 4.1-6.904l8.947-41.75c0.748-3.727 0-7.094-2.232-10.062-2.486-2.986-5.594-4.484-9.322-4.484h-171.12c-0.747-16.893-0.747-29.94 0-39.144h181.94c6.715 0 10.686-3.219 11.928-9.682l8.947-42.509c0.748-3.464-0.129-6.702-2.613-9.682-2.232-2.986-5.348-4.474-9.32-4.474h-174.48c12.424-27.846 31.065-49.707 55.924-65.625 24.854-15.906 52.938-23.856 84.254-23.856 3.477 0 7.143 0.116 10.998 0.361 3.85 0.263 7.455 0.569 10.814 0.931 3.354 0.379 6.578 0.74 9.688 1.12s5.9 0.814 8.391 1.31c2.479 0.496 4.658 0.93 6.523 1.297 1.867 0.379 3.293 0.685 4.291 0.93l1.486 0.379c3.227 1.003 6.213 0.686 8.947-0.93 2.73-1.616 4.475-4.033 5.221-7.265l16.035-59.291c0.746-3.219 0.373-6.206-1.121-8.941-2.232-2.986-4.725-4.847-7.453-5.593-22.89-5.706-46.99-8.577-72.34-8.577-55.68 0-105.45 15.918-149.32 47.724-43.868 31.818-74.132 73.82-90.778 126.02h-36.536c-3.482 0-6.34 1.108-8.574 3.348-2.24 2.24-3.36 5.098-3.36 8.58v42.498c0 3.482 1.12 6.334 3.36 8.58 2.234 2.24 5.092 3.348 8.574 3.348h24.982c-0.747 11.94-0.875 24.988-0.374 39.145h-24.608c-3.231 0-6.028 1.193-8.391 3.555-2.362 2.355-3.543 5.152-3.543 8.391v42.117c0 3.25 1.181 6.047 3.543 8.391 2.356 2.375 5.153 3.557 8.391 3.557h35.417c15.661 54.934 45.233 98.605 88.728 131.04 43.495 32.43 94.322 48.654 152.49 48.654 4.719 0 9.504-0.117 14.352-0.381 4.846-0.244 9.375-0.611 13.611-1.119 4.223-0.484 8.389-1.047 12.49-1.678 4.1-0.611 7.828-1.236 11.182-1.865 3.359-0.613 6.523-1.236 9.504-1.867 2.98-0.611 5.648-1.297 8.018-2.057 2.355-0.74 4.344-1.297 5.967-1.676 1.609-0.367 2.918-0.803 3.91-1.299l1.861-0.379c2.734-0.992 4.846-2.797 6.34-5.404 1.492-2.607 1.859-5.404 1.119-8.391l-13.048-59.273z" fill="#fff"/>
    </g>
   </g>
  </g>
  <g id="g3886" transform="matrix(.19496 0 0 .19496 262.13 944.48)">
   <g id="g3846" fill="#fff">
    <path id="path3848" d="m358.2 96.283h-33.437c-2.211-19.379-8.961-37.519-19.672-51.56h53.108c12.721 0 23.022-9.499 23.022-22.216 0-12.723-10.302-22.484-23.022-22.484h-180.08c-0.66 0-1.3-0.023-1.97-0.023-0.438 0-0.877 0.023-1.315 0.023h-85.851c-12.72 0-23.022 9.768-23.022 22.484s10.302 22.216 23.022 22.216h102.1c32.243 2.347 66.017 14.821 74.913 51.56h-177.01c-12.72 0-23.022 10.309-23.022 23.031 0 12.717 10.302 23.031 23.022 23.031h174.72c-10.87 29.034-40.728 46.742-82.225 46.742h-72.62c-12.401 0-22.455 10.054-22.455 22.455 0 12.404 10.054 22.458 22.455 22.458h26.382c0.109 0.012 0.207 0.065 0.316 0.065h41.665c45.268 1.72 65.402 21.35 76.946 75.055 9.032 39.892 15.682 65.875 20.912 81.438 3.919 14.398 11.674 36.091 25.127 49.048 5.261 5.059 12.046 7.577 18.808 7.577 7.117 0 14.233-2.784 19.559-8.322 9.76-10.144 9.937-25.842 0.993-36.334-0.041-0.124-0.023-0.26-0.088-0.384-8.258-15.32-18.247-56.412-30.435-108.53-9.688-42.381-27.787-68.778-55.213-80.499 34.437-13.22 58.127-38.506 67.412-70.772h36.966c12.721 0 23.022-10.314 23.022-23.031s-10.299-23.025-23.02-23.025z" fill="#fff"/>
   </g>
  </g>
  <g id="g3946" transform="matrix(2.9108 0 0 2.9108 11.367 790.11)">
   <g id="g3906" fill="#fff">
    <path id="path3908" d="m24.322 23.385v5.399h-19.86v-3.529c2.31-0.956 4.879-3.438 4.879-6.397 0-0.611-0.042-1.133-0.131-1.742h-4.269v-4.486h3.483c-0.215-1.088-0.348-2.354-0.348-3.526 0-5.489 4.008-9.104 9.84-9.104 2.396 0 4.183 0.521 5.14 1.045l-1.09 5.009c-0.824-0.479-2.046-0.783-3.654-0.783-3.094 0-4.049 2.002-4.049 4.094 0 1.134 0.128 2.179 0.389 3.267h5.969v4.486h-5.4c0.043 1.09-0.043 2.088-0.394 3.092-0.391 1.091-1.088 2.179-2.133 3.093v0.086h11.629v-0.004z" fill="#fff"/>
   </g>
  </g>
 </g>
</svg>
