<?xml version="1.0" encoding="UTF-8" standalone="no"?>
<!--
  ~ Copyright (C) 2012-2018 The Android Money Manager Ex Project Team
  ~
  ~ This program is free software; you can redistribute it and/or
  ~ modify it under the terms of the GNU General Public License
  ~ as published by the Free Software Foundation; either version 3
  ~ of the License, or (at your option) any later version.
  ~
  ~ This program is distributed in the hope that it will be useful,
  ~ but WITHOUT ANY WARRANTY; without even the implied warranty of
  ~ MERCHANTABILITY or FITNESS FOR A PARTICULAR PURPOSE.  See the
  ~ GNU General Public License for more details.
  ~
  ~ You should have received a copy of the GNU General Public License
  ~ along with this program.  If not, see <http://www.gnu.org/licenses/>.
  -->

<!-- Created with Inkscape (http://www.inkscape.org/) -->
<svg id="svg2" xmlns:rdf="http://www.w3.org/1999/02/22-rdf-syntax-ns#" xmlns="http://www.w3.org/2000/svg" height="400" viewBox="0 0 400 400.00001" width="400" version="1.1" xmlns:cc="http://creativecommons.org/ns#" xmlns:dc="http://purl.org/dc/elements/1.1/">
 <g id="layer1" fill="#fff" transform="translate(0 -652.36)">
  <g id="g3548" transform="matrix(.34836 0 0 .34836 2.6251 866.72)">
   <g id="g3508" fill="#fff">
    <path id="path3510" d="m611.31 298.22c-2.844-10.286-13.484-16.326-23.782-13.509l-61.653 16.983c9.355-2.948 14.886-12.711 12.226-22.236l-23.05-83.444 11.897-3.262c0.039-0.027 0.092-0.027 0.092-0.027 9.775-2.699 15.515-12.776 12.842-22.552-1.795-6.355-6.695-11.008-12.605-12.75l-147.83-57.83c-7.587-2.974-16.169-0.589-21.175 5.845l-39.338 50.737-2.215-8.164c-2.69-9.73-12.81-15.48-22.58-12.78l-16.341 4.509c-9.749 2.699-15.475 12.803-12.735 22.552l12.88 46.845-17.821 23.009c-4.849 6.238-5.149 14.898-0.747 21.451 4.375 6.552 12.513 9.553 20.114 7.456l11.858-3.276 23.089 83.391c2.581 9.383 12.043 14.832 21.425 12.869l-222.81 61.38c4.574-4.18 6.828-10.6 5.072-16.982l-3.368-12.227c29.588-12.238 45.129-36.402 36.755-66.828l-0.117-0.498c-8.307-30.047-31.526-37.187-69.029-36.689-31.934 0.577-40.321-1.087-43.464-12.409l-0.145-0.512c-2.281-8.374 3.511-17.14 18.056-21.136 11.847-3.276 24.845-2.32 39.48 1.611 3.407 0.904 6.618 1.087 10.326 0.065 9.854-2.699 15.686-12.554 12.973-22.393-2.057-7.403-7.705-11.453-12.579-12.724-12.75-3.931-26.3-5.11-40.478-3.617l-3.578-12.946c-2.515-9.107-11.846-14.427-20.965-11.912-9.042 2.489-14.362 11.846-11.846 20.953l3.546 12.86c-25.827 12.51-39.024 36.41-31.686 63.11l0.145 0.498c9.447 34.278 34.527 37.712 71.729 36.991 30.872-0.523 38.158 2.752 40.818 12.371l0.145 0.484c2.778 10.104-4.888 18.844-20.429 23.143-16.759 4.625-32.681 2.633-48.444-3.354-2.909-1.076-6.813-1.809-11.781-0.473-9.841 2.727-15.645 12.514-12.919 22.395 1.624 5.91 6.079 10.533 11.112 12.303 15.985 5.883 32.812 7.77 49.19 6.42l3.735 13.562c1.756 6.395 6.971 10.744 13.052 11.988l-75.276 20.75c-10.286 2.844-16.326 13.484-13.497 23.783 2.844 10.299 13.47 16.34 23.771 13.508l212.31-58.48-67.38 67.38c-4.573 4.586-5.948 11.465-3.472 17.455 2.464 5.963 8.321 9.867 14.78 9.867l184.83-0.012c6.461 0 12.317-3.904 14.78-9.867 2.477-5.988 1.102-12.869-3.473-17.455l-83.09-83.08 295.12-81.28c10.302-2.818 16.355-13.471 13.526-23.783zm-249.03-36.52 29.981-8.256c6.553-1.808 13.353 2.07 15.162 8.623l8.268 29.982c1.795 6.577-2.044 13.352-8.623 15.161l-29.994 8.256c-6.564 1.822-13.352-2.031-15.188-8.623l-8.229-29.967c-1.834-6.555 2.044-13.369 8.623-15.176zm109.24-17.283 8.229 29.967c1.821 6.577-2.057 13.378-8.623 15.174l-29.982 8.256c-6.564 1.807-13.366-2.044-15.173-8.623l-8.256-29.982c-1.796-6.553 2.044-13.366 8.623-15.174l29.994-8.256c6.552-1.78 13.354 2.071 15.188 8.638zm-62.572-63.448 29.994-8.256c6.565-1.808 13.353 2.044 15.174 8.609l8.241 29.982c1.808 6.552-2.056 13.366-8.623 15.173l-29.968 8.256c-6.564 1.808-13.365-2.044-15.161-8.623l-8.268-29.994c-1.792-6.551 2.047-13.352 8.611-15.147zm-64.061 17.638 29.981-8.256c6.564-1.807 13.366 2.044 15.174 8.609l8.256 29.982c1.808 6.579-2.044 13.366-8.597 15.188l-29.994 8.241c-6.579 1.808-13.378-2.044-15.188-8.608l-8.256-29.994c-1.822-6.554 2.045-13.343 8.624-15.162z" fill="#fff"/>
   </g>
  </g>
  <g id="g3615" transform="matrix(.39249 0 0 .39249 7.9283 648.82)">
   <g id="g3568" fill="#fff">
    <g id="Layer_5_80_" fill="#fff">
     <g id="g3571" fill="#fff">
      <path id="path3573" d="m244 73.815c8.32-12.583-2.1-16.426-7.15-18.264-20.37-7.417-42.75-11.518-66.25-11.518-94.221 0-170.6 65.917-170.6 147.24 0 80.555 74.952 146 167.95 147.22 0.881 0.012 1.764 0.018 2.648 0.018 5.476 0 17.403-1.608 14.593-15.696 0 0-9.095-83.543-12.914-116.38-1.963-16.877 6.651-28.491 6.651-28.491l65.07-104.12z"/>
      <path id="path3575" d="m380.57 173.64c10.123 0 10.413-7.2 10.116-10.751-3.974-47.535-34.097-88.815-78.014-113.19-3.62-2.009-11.268-5.675-17.997 5.308l-68.882 110.22s-6.392 8.412 7.795 8.412h146.98z"/>
      <path id="path3577" d="m356.92 201.07h-153.6c-10.404 0-9.193 7.52-9.193 7.52l14.39 129.92c1.235 10.719 10.819 8.142 15.622 7.386 76.777-12.102 135.61-68.552 139.54-137.47 0.14-2.439 0.807-7.361-6.76-7.361z"/>
     </g>
    </g>
   </g>
  </g>
  <g id="g3689" transform="matrix(7.9792 0 0 7.9792 194.49 734.41)">
   <g id="g3639" fill="#fff">
    <g id="g3641" fill="#fff">
     <path id="path3643" d="m19.035 0h-17.537v20.93h17.537v-20.93zm-1.054 19.876h-15.429v-18.821h15.429v18.821z"/>
     <rect id="rect3645" height="1.106" width="11.988" y="3.399" x="4.392"/>
     <rect id="rect3647" height="1.105" width="11.988" y="6.884" x="4.392"/>
     <polygon id="polygon3649" points="20.75 3.427 20.75 22.247 5.32 22.247 5.32 21.516 4.264 21.516 4.264 23.304 21.806 23.304 21.806 2.372 19.757 2.372 19.757 3.427"/>
     <path id="path3651" d="m4.84 15.083c0.208 0 0.398-0.059 0.573-0.145l1.504 1.23c-0.008 0.058-0.034 0.108-0.034 0.168 0 0.728 0.59 1.317 1.317 1.317s1.317-0.59 1.317-1.317c0-0.209-0.06-0.399-0.146-0.575 0.723-1.084 1.646-2.47 2.2-3.301 0.085 0.018 0.165 0.052 0.255 0.052 0.316 0 0.595-0.126 0.822-0.312 0.495 0.289 1.138 0.664 1.692 0.987-0.001 0.019-0.011 0.033-0.011 0.052 0 0.728 0.59 1.317 1.317 1.317s1.316-0.59 1.316-1.317-0.589-1.317-1.316-1.317c-0.322 0-0.606 0.129-0.836 0.321l-1.683-0.982c0.001-0.022 0.013-0.041 0.013-0.063 0-0.727-0.589-1.315-1.315-1.315s-1.314 0.589-1.314 1.315c0 0.244 0.084 0.459 0.199 0.655-0.691 1.038-1.593 2.391-2.158 3.24-0.114-0.034-0.227-0.073-0.352-0.073-0.272 0-0.511 0.103-0.721 0.244-0.417-0.342-0.933-0.764-1.394-1.141 0.033-0.116 0.072-0.23 0.072-0.356 0-0.729-0.593-1.317-1.317-1.316-0.729 0-1.318 0.588-1.318 1.316-0.001 0.726 0.588 1.316 1.318 1.316z"/>
    </g>
   </g>
  </g>
 </g>
</svg>
