<?xml version="1.0" encoding="UTF-8" standalone="no"?>
<!--
  ~ Copyright (C) 2012-2018 The Android Money Manager Ex Project Team
  ~
  ~ This program is free software; you can redistribute it and/or
  ~ modify it under the terms of the GNU General Public License
  ~ as published by the Free Software Foundation; either version 3
  ~ of the License, or (at your option) any later version.
  ~
  ~ This program is distributed in the hope that it will be useful,
  ~ but WITHOUT ANY WARRANTY; without even the implied warranty of
  ~ MERCHANTABILITY or FITNESS FOR A PARTICULAR PURPOSE.  See the
  ~ GNU General Public License for more details.
  ~
  ~ You should have received a copy of the GNU General Public License
  ~ along with this program.  If not, see <http://www.gnu.org/licenses/>.
  -->

<!-- Created with Inkscape (http://www.inkscape.org/) -->
<svg id="svg4178" xmlns:rdf="http://www.w3.org/1999/02/22-rdf-syntax-ns#" xmlns="http://www.w3.org/2000/svg" height="400" viewBox="0 0 400 400" width="400" version="1.1" xmlns:cc="http://creativecommons.org/ns#" xmlns:dc="http://purl.org/dc/elements/1.1/">
 <g id="layer1" fill="#fff" transform="translate(0 -652.36)">
  <g id="g3441" transform="matrix(4.0585 0 0 4.123 5.8664 916.66)">
   <g id="g3397" fill="#fff">
    <g id="g3399" fill="#fff">
     <path id="path3401" d="m18.615 7.229h-17.742c-0.543 0-0.873 0.412-0.873 0.957v11.828c0 0.545 0.33 1.015 0.873 1.015h7.698v1.471h-2.719c-0.865 0-1.567 0.703-1.567 1.566v0.311h10.581v-0.311c0-0.865-0.702-1.566-1.567-1.566h-2.719v-1.471h8.035c0.545 0 0.938-0.468 0.938-1.015v-11.829c-0.001-0.544-0.393-0.956-0.938-0.956zm-1.072 10.654c0 0.7-0.564 1.269-1.268 1.269h-13.133c-0.7 0-1.268-0.566-1.268-1.269v-7.376c0-0.7 0.567-1.267 1.268-1.267h13.133c0.701 0 1.27 0.567 1.27 1.267v7.376h-0.002z"/>
     <path id="path3403" d="m23.171 7.097c-1.11 0-2.012 0.9-2.012 2.011v15.399h10.444v-15.843c0-0.866-0.701-1.567-1.565-1.567h-6.867zm3.239 15.506c-0.477 0-0.859-0.375-0.859-0.836s0.387-0.836 0.859-0.836 0.857 0.375 0.857 0.836-0.385 0.836-0.857 0.836zm2.922-9.479h-5.895v-0.938h5.895v0.938zm0-2.009h-5.895v-0.938h5.895v0.938z"/>
    </g>
   </g>
  </g>
  <g id="g3584" transform="matrix(.21467 0 0 .21467 169.46 687.68)">
   <g id="g3538" fill="#fff">
    <g id="g3540" fill="#fff">
     <path id="path3542" d="m327.32 143.31c5.163-5.21 7.862-11.25 7.917-18.449 0.056-7.349-3.178-13.297-7.9-18.513 15.746-16.572 6.194-41.014-14.795-44.015v162.27c21.181-2.932 30.604-27.666 14.885-43.891 10.69-12.415 10.496-24.929-0.107-37.399z"/>
     <path id="path3544" d="m127.64 252c0 11.028 8.971 20 20 20h138c11.028 0 20-8.972 20-20v-232c0-11.028-8.972-20-20-20h-138c-11.029 0-20 8.972-20 20v41.668c3.987-0.682 7.784-1.104 11.237-1.21 7.939-0.244 13.979-0.469 18.763-0.673v-29.784h118v189h-118v-94.458c-6.342 1.923-12.323 4.701-18.325 8.475-2.402 1.509-7.224 5.105-11.675 8.511v38.473m89.001 74.469c-5.387 0-9.754-4.367-9.754-9.752 0-5.387 4.367-9.752 9.754-9.752 5.385 0 9.752 4.365 9.752 9.752 0 5.385-4.368 9.752-9.752 9.752z"/>
     <path id="path3546" d="m120.2 256.65v-92.263c0-15.938-3.334-24.354-3.334-24.354s15.065-11.906 20.519-15.333c11.666-7.333 24.077-11.19 40.667-12.834 46.228-4.581 51.043-49.531 26.561-49.531-19.102 0-25 2.471-63.444 3.652-20.728 0.637-55.217 7.448-66.535 18.063-18.125 17-11.75 107.75-18.416 138.65l-43.018 65.333 100.43 60.535c30.067-46.201 73.067-69.16 73.067-69.16s-32.374 0.003-39.999 0.003c-20.172 0.001-26.501-12.385-26.501-22.76z"/>
    </g>
   </g>
  </g>
  <g id="g4026" transform="matrix(6.6851 0 0 6.5654 133.83 786.3)">
   <g id="g3984" fill="#fff">
    <path id="path3986" d="m9.446 7.118 1.742 3.416 2.582-7.953-7.954-2.58 1.728 3.39c-4.067 1.452-6.98 5.327-6.98 9.892 0 4.7 3.085 8.677 7.341 10.021-2.564-1.618-4.272-4.468-4.272-7.72-0.001-3.865 2.418-7.137 5.813-8.466z"/>
    <path id="path3988" d="m13.861 16.189-1.743-3.417-2.579 7.952 7.951 2.581-1.729-3.391c4.068-1.45 6.98-5.326 6.98-9.893 0-4.699-3.084-8.676-7.34-10.021 2.563 1.618 4.273 4.467 4.273 7.72 0.001 3.867-2.418 7.137-5.813 8.469z"/>
   </g>
  </g>
  <g id="g5008" transform="matrix(2.2172 0 0 2.2172 285.08 930.73)">
   <g id="g4964" fill="#fff">
    <g id="g4966" fill="#fff">
     <path id="path4968" d="m46.875 4.854h-43.75c-1.723 0-3.125 1.4-3.125 3.125v28.125c0 1.725 1.402 3.125 3.125 3.125h17.911c-0.681-1.193-1.517-2.729-2.557-4.688h-13.791v-25h40.625v25h-2.062v3.373c0 0.107-0.015 0.609-0.128 1.313h3.752c1.723 0 3.125-1.401 3.125-3.125v-28.123c0-1.725-1.402-3.125-3.125-3.125zm0.766 18.75c-0.865 0-1.562-0.699-1.562-1.562s0.697-1.563 1.562-1.563c0.861 0 1.562 0.701 1.562 1.563s-0.701 1.562-1.562 1.562z"/>
     <path id="path4970" d="m39.052 22.406h-0.176c-1.024 0-1.858 0.832-1.858 1.854v1.658h-0.228v-1.658c0-1.023-0.836-1.854-1.856-1.854h-0.182c-1.021 0-1.854 0.832-1.854 1.854v1.658h-0.23v-1.658c0-1.023-0.834-1.854-1.854-1.854h-0.184c-1.02 0-1.854 0.832-1.854 1.854v1.658h-0.121v-10.594c0-1.029-0.833-1.866-1.866-1.866l-0.181-0.001c-1.027 0-1.863 0.837-1.863 1.867v16.209c-0.498-0.562-0.936-1.135-1.337-1.652-0.892-1.154-1.593-2.068-2.385-2.25-0.879-0.209-1.691 0.084-2.082 0.718-0.367 0.603-0.311 1.433 0.153 2.333 1.016 1.943 5.897 10.479 5.9 10.479 0.386 0.934 2.089 3.986 7.823 3.986v-0.204l0.006 0.204c4.17 0 6.145-1.968 7.068-3.618 0.996-1.782 1.012-3.538 1.012-3.614v-13.655c0.004-1.024-0.833-1.854-1.851-1.854z"/>
    </g>
   </g>
  </g>
 </g>
</svg>
