<?xml version="1.0" encoding="UTF-8" standalone="no"?>
<!--
  ~ Copyright (C) 2012-2019 The Android Money Manager Ex Project Team
  ~
  ~ This program is free software; you can redistribute it and/or
  ~ modify it under the terms of the GNU General Public License
  ~ as published by the Free Software Foundation; either version 3
  ~ of the License, or (at your option) any later version.
  ~
  ~ This program is distributed in the hope that it will be useful,
  ~ but WITHOUT ANY WARRANTY; without even the implied warranty of
  ~ MERCHANTABILITY or FITNESS FOR A PARTICULAR PURPOSE.  See the
  ~ GNU General Public License for more details.
  ~
  ~ You should have received a copy of the GNU General Public License
  ~ along with this program.  If not, see <http://www.gnu.org/licenses/>.
  -->

<!-- Created with Inkscape (http://www.inkscape.org/) -->
<svg id="svg2" xmlns:rdf="http://www.w3.org/1999/02/22-rdf-syntax-ns#" xmlns="http://www.w3.org/2000/svg" height="400" viewBox="0 0 400 400.00001" width="400" version="1.1" xmlns:cc="http://creativecommons.org/ns#" xmlns:dc="http://purl.org/dc/elements/1.1/">
 <g id="layer1" fill="#fff" transform="translate(0 -652.36)">
  <g id="g3380" transform="matrix(.39189 0 0 .39189 225.71 665.05)">
   <path id="path3342" d="m361.1 104.88-72.82-84.261c-6.97-8.059-17.07-12.682-27.72-12.682-10.652 0-20.76 4.623-27.722 12.682l-54.912 63.539c-2.178 0.457-4.276 1.131-6.273 1.998-0.32-19.932-16.62-36.051-36.63-36.051h-51.181c-20.201 0-36.637 16.438-36.637 36.639v117.79h-10.587c-14.295 0-27.372 8.4-33.314 21.395-5.953 13.002-3.754 28.393 5.595 39.201l72.813 84.254c6.969 8.059 17.07 12.682 27.72 12.682 10.652 0 20.76-4.623 27.722-12.682l55.042-63.686c2.134-0.496 4.185-1.201 6.137-2.09 0.192 20.041 16.545 36.289 36.632 36.289h51.182c20.201 0 36.638-16.438 36.638-36.639v-117.78h10.586c14.295 0 27.372-8.402 33.315-21.395 5.949-13.002 3.751-28.394-5.598-39.201zm-250.53 221.52c-0.565 0.656-1.69 0.658-2.261 0l-72.816-84.26c-0.381-0.436-0.468-1.061-0.224-1.594 0.241-0.533 0.775-0.875 1.356-0.875h45.731v-152.93c0-0.824 0.668-1.492 1.492-1.492h51.182c0.825 0 1.498 0.668 1.498 1.492v36.59c-1.154 1.131-2.264 2.309-3.308 3.549-8.687 10.346-13.277 22.899-13.277 36.299 0 9.986 2.563 19.166 7.626 27.391-2.402 2.668-4.383 5.754-5.833 9.158-4.333 10.184-3.284 21.777 2.803 31.016 6.677 10.127 15.929 17.727 27.268 22.51v0.377c0 6.842 2.1 13.203 5.685 18.475l-46.93 54.3zm108.16-101.33c-5.781 5.492-13.514 9.154-23.031 10.924v17.639c0 6.055-4.907 10.961-10.965 10.961-6.053 0-10.961-4.906-10.961-10.961v-17.055c-13.89-1.881-24.286-7.9-30.89-17.92-2.023-3.07-2.376-6.945-0.935-10.326 1.438-3.379 4.475-5.818 8.086-6.484l8.276-1.541c4.233-0.785 8.536 0.982 10.998 4.518 3.112 4.475 8.379 6.744 15.657 6.744 11.206 0 11.206-4.455 11.206-5.92 0-2.125-0.797-3.668-2.508-4.861-1.745-1.217-4.927-2.299-9.455-3.221-18.205-3.711-29.934-8.529-34.863-14.318-5.007-5.869-7.436-12.434-7.436-20.066 0-8.287 2.735-15.744 8.132-22.172 5.226-6.219 13.21-10.256 23.73-12.018v-12.623c0-6.055 4.908-10.963 10.961-10.963 6.058 0 10.965 4.908 10.965 10.963v12.859c9.416 1.797 16.769 5.602 22.349 11.572 2.577 2.754 3.557 6.639 2.597 10.285-0.963 3.646-3.729 6.541-7.328 7.664l-5.678 1.777c-4.118 1.293-8.61 0.041-11.477-3.186-2.857-3.221-7.095-4.855-12.6-4.855-4.434 0-9.72 1.057-9.72 6.084 0 1.424 0.547 2.709 1.575 3.717 1.082 1.053 4.235 2.172 9.373 3.318 11.856 2.594 20.522 4.961 25.709 7.023 5.261 2.096 9.69 5.688 13.176 10.678 3.483 4.98 5.254 10.955 5.254 17.746 0.002 9.511-3.429 17.591-10.197 24.018zm116-95.619c-0.241 0.535-0.775 0.875-1.357 0.875h-45.731v152.93c0 0.824-0.668 1.492-1.492 1.492h-51.182c-0.825 0-1.498-0.668-1.498-1.492v-41.908c0.128-0.119 0.259-0.232 0.388-0.354 11.143-10.586 17.033-24.396 17.033-39.941 0-11.229-3.188-21.717-9.212-30.318-1.192-1.709-2.456-3.324-3.788-4.846 1.761-2.803 3.116-5.895 3.989-9.203 2.903-11.021-0.009-22.572-7.791-30.887-4.728-5.057-10.265-9.162-16.553-12.291-0.483-5.605-2.386-10.811-5.335-15.264l47.23-54.642c0.283-0.328 0.697-0.516 1.132-0.516 0.434 0 0.844 0.189 1.129 0.518l72.816 84.258c0.382 0.435 0.469 1.06 0.225 1.593z" fill="#fff"/>
  </g>
  <g id="g3443" transform="matrix(1.0457 0 0 1.0457 42.471 728.44)">
   <g id="g3399" fill="#fff">
    <g id="g3401" fill="#fff">
     <path id="path3403" d="m105.62 87.618c2.568-5.21 2.736-11.492-1.707-15.548 2.006-5.902 0.354-13.309-5.609-15.5 1.062-3.636 1.342-7.725-0.587-10.992-1.741-2.949-5.287-3.719-8.497-3.634 3.49-7.532 8.768-16.931 15.723-23.692l0.978-0.949-0.822-1.087c-0.56-0.744-13.963-18.163-31.004-12.89l-1.177 0.364 0.093 1.227c0.024 0.31 2.218 30.509-4.166 43.979-0.578 0.309-1.153 0.618-1.722 0.927-0.932-2.884-2.075-5.787-3.441-8.569-2.778-6.436-7.078-14.921-12.894-22.191 2.744-2.411 1.345-6.371 0.307-8.458 3.642-3.166 9.018-6.734 15.224-7.383 0.61 1.704 2.032 4.724 4.577 5.597-0.095-2.248-0.194-3.623-0.2-3.687l-0.185-2.452 2.349-0.728c0.912-0.282 1.834-0.492 2.762-0.663l-0.961-0.297c-17.043-5.272-30.447 12.146-31.009 12.89l-0.822 1.087 0.976 0.95c7.411 7.205 12.921 17.407 16.389 25.152-10.391 3.558-14.177 12.531-17.517 20.448-2.32 5.501-4.35 10.301-8.111 12.136l-0.125-0.381-1.16-3.562-16.858 5.492 16.218 49.779 16.859-5.492-0.975-2.993c15.287-4.436 31.205-6.159 46.669-9.845 4.75-1.132 9.687-2.249 12.308-6.694 2.23-3.775 0.602-8.925-1.879-12.341zm-80.021-4.399-1.605-4.927 4.924-1.604 1.605 4.925-4.924 1.606zm50.147-50.302c0.451 1.879 2.025 3.732 4.324 4.798 3.457 1.601 7.227 0.813 8.418-1.763 1.194-2.574-0.642-5.96-4.098-7.562-3.423-1.585-7.148-0.824-8.38 1.691 0.571-6.966 0.548-13.837 0.403-18.679 3.471-0.009 5.304-3.843 6.022-5.847 6.205 0.649 11.581 4.218 15.224 7.383-1.039 2.087-2.438 6.046 0.307 8.458-5.45 6.813-9.564 14.686-12.346 20.947-4.325 0.763-8.569 2.453-12.633 4.429 1.365-4.077 2.232-8.918 2.759-13.855zm-15.322 8.66c-0.008 0.011-0.015 0.021-0.023 0.032l-0.117-0.343c0.047 0.104 0.095 0.21 0.14 0.311zm40.445 57.131c-4.021 2.49-9.832 3.179-14.367 4.098-12.852 2.606-26.941 4.316-39.551 7.984l-10.478-31.353c5.846-2.435 9.388-9.26 11.933-15.295 2.872-6.809 5.852-13.832 13.292-16.653 0.928 2.251 1.545 4.396 2.291 7.016 0.396 1.393 1.996 1.717 3.135 1.094 6.005-3.281 12.513-6.824 19.359-8.003 0.049 0.017 0.1 0.028 0.148 0.047 0.012-0.026 0.023-0.054 0.033-0.08 0.115-0.019 0.228-0.043 0.343-0.06 2.073-0.319 5.433-0.531 6.489 1.806 0.791 1.748 0.513 3.83 0.141 5.644-0.219 1.066-0.734 2.67-0.84 2.931-0.462 1.135-0.02 2.815 1.417 2.986 5.495 0.651 6.28 6.889 4.21 11.146-0.376 0.772-0.292 1.964 0.473 2.505 4.348 3.07 3.627 7.937 1.211 12.087-0.334 0.572-0.332 1.576 0.118 2.097 2.382 2.756 4.606 7.548 0.642 10.003z"/>
     <path id="path3405" d="m64.365 26.057c-3.456 1.602-5.292 4.988-4.098 7.562 1.192 2.575 4.961 3.364 8.418 1.763 0.525-0.243 1.006-0.532 1.452-0.849 0.356-2.846 0.589-5.781 0.733-8.646-1.727-0.899-4.184-0.905-6.505 0.17z"/>
    </g>
   </g>
  </g>
  <g id="g3510" transform="matrix(3.3289 0 0 3.3289 19.714 934.19)">
   <g id="g3465" fill="#fff">
    <g id="loop_x5F_alt4" fill="#fff">
     <g id="g3468" fill="#fff">
      <path id="path3470" d="m28 18c0 1.102-0.898 2-2 2h-18.008v-4l-7.992 6 7.992 6v-4h18.008c3.309 0 6-2.695 6-6h-4z"/>
      <path id="path3472" d="m6 12h18v4l8-6-8-6v4h-18c-3.309 0-6 2.688-6 6h4c0-1.102 0.898-2 2-2z"/>
     </g>
    </g>
   </g>
  </g>
  <g id="g3577" transform="matrix(6.1956 0 0 6.1956 209.09 879.52)">
   <g id="g3533" fill="#fff">
    <g id="g3535" fill="#fff">
     <path id="path3537" d="m17.873 3.12-10.589 0.006c-0.607-0.001-1.101 0.493-1.1 1.101v0.505c-0.225-0.097-0.504-0.165-0.86-0.165-0.445 0-0.814 0.1-0.855 0.113-0.086 0.024-0.164 0.066-0.231 0.125l-4.036 3.536c-0.132 0.117-0.206 0.286-0.202 0.462l0.035 5.821c0.008 0.31 0.364 0.563 0.675 0.577 0.016 0 1.521 0.063 2.851 0.063 0.811 0 1.383-0.021 1.748-0.067 1.064-0.134 1.529-0.448 1.722-0.648 0.2-0.146 0.378-0.29 0.564-0.434-0.155 0.568 0.104 1.187 0.648 1.462 0.176 0.09 0.374 0.138 0.57 0.138 0.349 0 0.669-0.145 0.903-0.385 0.115 0.156 0.261 0.292 0.445 0.387 0.177 0.087 0.374 0.135 0.571 0.135 0.478 0 0.91-0.267 1.126-0.693l0.837-1.648c0.153-0.302 0.185-0.645 0.079-0.965-0.034-0.104-0.088-0.201-0.148-0.291l5.239 0.003c0.607 0 1.102-0.494 1.103-1.1l0.004-6.924c0.001-0.609-0.492-1.114-1.099-1.114zm-7.801 9.892-0.835 1.65c-0.113 0.228-0.407 0.325-0.636 0.21-0.233-0.119-0.326-0.405-0.209-0.637l0.687-1.353s0.225-0.549 0.584-0.555c0.07 0.002 0.138 0.017 0.202 0.05 0.112 0.058 0.196 0.153 0.235 0.274 0.04 0.121 0.032 0.248-0.028 0.361zm-1.316-1.451-0.755 0.692h0.007c-0.473 0.41-1.036 0.865-1.729 1.377-0.052 0.038-0.056 0.034-0.093 0.086-0.002 0.002-0.231 0.206-1.021 0.304-0.216 0.027-0.668 0.023-1.603 0.023-0.813 0-1.825 0.012-2.378-0.007l0.009-4.986 3.714-3.255c0.1-0.019 0.252-0.041 0.417-0.041 0.242 0 0.409 0.043 0.499 0.132v4.116c0 0.209 0.11 0.401 0.29 0.509 0.021 0.012 0.045 0.01 0.067 0.02v0.044l0.055-0.028c0.153 0.051 0.318 0.058 0.464-0.023 0.923-0.5 2.672-1.295 3.434-1.295 0.034 0 0.063 0 0.083 0.004 0.003 0.007 0.006 0.011 0.01 0.017 0.016 0.079 0.092 0.765-1.47 2.311zm3.233 1.589-0.835 1.65c-0.114 0.228-0.409 0.324-0.637 0.209-0.232-0.117-0.324-0.404-0.207-0.636l0.836-1.65c0.081-0.16 0.242-0.261 0.422-0.261 0.075 0 0.147 0.019 0.215 0.053 0.114 0.058 0.197 0.155 0.235 0.273 0.04 0.122 0.031 0.249-0.029 0.362zm6.247-1.995c-0.001 0.205-0.165 0.367-0.367 0.367l-7.476-0.002c0.611-0.754 0.962-1.43 1.02-2.016 0.043-0.464-0.094-0.76-0.195-0.907-0.125-0.236-0.419-0.557-1.085-0.557-0.871 0-2.229 0.57-3.124 0.996v-1.643l11.228-0.003-0.001 3.765zm0.001-5.941-11.32-0.005v-0.984c0-0.203 0.164-0.367 0.366-0.367l10.59-0.008c0.2 0 0.367 0.178 0.367 0.38l-0.003 0.984z"/>
     <polygon id="polygon3539" points="14.496 9.845 14.505 10.842 17.403 10.842 17.395 9.847"/>
    </g>
   </g>
  </g>
 </g>
</svg>
